
<svg id="Layer_1" data-name="Layer 1" xmlns="http://www.w3.org/2000/svg" viewBox="0 0 140.33 29.92"><defs><style>.cls-1,.cls-2{fill:#000;}.cls-1{stroke:#000;stroke-miterlimit:10;}</style></defs><g id="TAK.GOV"><path class="cls-1" d="M128.14,50.27h23.7v6h-8.4v22.9H136.6V56.29h-8.46Z" transform="translate(-127.64 -49.77)"/><path class="cls-1" d="M160,50.27H167l10.28,28.92h-6.74L168.44,73h-9.76l-2.2,6.16h-6.8Zm6.88,16.9-3.34-10.36-3.38,10.36Z" transform="translate(-127.64 -49.77)"/><path class="cls-1" d="M199,79.19,192,66.35,188,71.27v7.92H181V50.27H188V62.73l9.44-12.46h7.74l-8.34,11.1,9.52,17.82Z" transform="translate(-127.64 -49.77)"/><path class="cls-2" d="M212.68,79.19h-3.93V74.83h3.93Z" transform="translate(-127.64 -49.77)"/><path class="cls-2" d="M219.42,78.31a7.4,7.4,0,0,1-2.76-3.22,12.75,12.75,0,0,1,0-9.85A7.45,7.45,0,0,1,219.54,62a8.39,8.39,0,0,1,7.78-.33,6.87,6.87,0,0,1,2.54,2.15,5.32,5.32,0,0,1,1,2.85l-3.22.1a4.21,4.21,0,0,0-.71-1.68,3.78,3.78,0,0,0-1.36-1.18,4,4,0,0,0-1.87-.43,4.34,4.34,0,0,0-2.49.72,4.65,4.65,0,0,0-1.65,2.21,10,10,0,0,0-.59,3.66q0,3.47,1.32,5.07a4.31,4.31,0,0,0,3.51,1.6,4,4,0,0,0,2.09-.53,3.83,3.83,0,0,0,1.37-1.34,3.66,3.66,0,0,0,.56-1.62l.12-1.32h-4V69.78l7.22,0v9.39H229V76.66a6.79,6.79,0,0,1-2.12,2,6.25,6.25,0,0,1-3.25.77A7.62,7.62,0,0,1,219.42,78.31Z" transform="translate(-127.64 -49.77)"/><path class="cls-2" d="M238,78.34a7.13,7.13,0,0,1-2.81-3.17,11.45,11.45,0,0,1-1-5,11.69,11.69,0,0,1,1-5A7.31,7.31,0,0,1,238,62a8.79,8.79,0,0,1,8.57,0,7.2,7.2,0,0,1,2.8,3.22,13.18,13.18,0,0,1,0,10,7.16,7.16,0,0,1-2.8,3.19,9,9,0,0,1-8.61,0Zm7.85-3.07a8.46,8.46,0,0,0,1.22-5,8.71,8.71,0,0,0-1.23-5.14,4.54,4.54,0,0,0-7,0,8.54,8.54,0,0,0-1.25,5.13,8.2,8.2,0,0,0,1.25,5,4.19,4.19,0,0,0,3.55,1.63A4.14,4.14,0,0,0,245.86,75.27Z" transform="translate(-127.64 -49.77)"/><path class="cls-2" d="M261.66,79.19h-3.52l-6.25-18.07h2.94l5.08,14.56L265,61.12H268Z" transform="translate(-127.64 -49.77)"/></g></svg>